{
    "asset": {
        "version": "2.0",
        "generator": "https://3dviewer.net"
    },
    "scene": 0,
    "scenes": [
        {
            "nodes": [
                0
            ]
        }
    ],
    "nodes": [
        {
            "mesh": 0
        }
    ],
    "materials": [
        {
            "name": "Model_Model_9",
            "pbrMetallicRoughness": {
                "baseColorFactor": [
                    1,
                    1,
                    1,
                    1
                ],
                "baseColorTexture": {
                    "index": 0
                },
                "metallicFactor": 0,
                "roughnessFactor": 1
            },
            "emissiveFactor": [
                0,
                0,
                0
            ],
            "doubleSided": true,
            "alphaMode": "OPAQUE"
        }
    ],
    "meshes": [
        {
            "name": "Mesh",
            "primitives": [
                {
                    "attributes": {
                        "POSITION": 1,
                        "NORMAL": 2,
                        "TEXCOORD_0": 3
                    },
                    "indices": 0,
                    "mode": 4,
                    "material": 0
                }
            ]
        }
    ],
    "buffers": [
        {
            "uri": "model.bin",
            "byteLength": 7183944
        }
    ],
    "bufferViews": [
        {
            "buffer": 0,
            "byteOffset": 0,
            "byteLength": 798216
        },
        {
            "buffer": 0,
            "byteOffset": 798216,
            "byteLength": 2394648
        },
        {
            "buffer": 0,
            "byteOffset": 3192864,
            "byteLength": 2394648
        },
        {
            "buffer": 0,
            "byteOffset": 5587512,
            "byteLength": 1596432
        }
    ],
    "accessors": [
        {
            "bufferView": 0,
            "byteOffset": 0,
            "componentType": 5125,
            "count": 199554,
            "type": "SCALAR"
        },
        {
            "bufferView": 1,
            "byteOffset": 0,
            "componentType": 5126,
            "count": 199554,
            "min": [
                -0.5420460104942322,
                -0.01238900184631353,
                -0.0709639937877656
            ],
            "max": [
                0.6146210134029388,
                1.802305998802185,
                0.3842750041484831
            ],
            "type": "VEC3"
        },
        {
            "bufferView": 2,
            "byteOffset": 0,
            "componentType": 5126,
            "count": 199554,
            "type": "VEC3"
        },
        {
            "bufferView": 3,
            "byteOffset": 0,
            "componentType": 5126,
            "count": 199554,
            "type": "VEC2"
        }
    ],
    "images": [
        {
            "uri": "Model_0.jpg"
        }
    ],
    "textures": [
        {
            "source": 0
        }
    ]
}